<?xml version="1.0" encoding="UTF-8" standalone="no"?>
<!DOCTYPE svg PUBLIC "-//W3C//DTD SVG 1.1//EN" "http://www.w3.org/Graphics/SVG/1.1/DTD/svg11.dtd">
<svg xmlns="http://www.w3.org/2000/svg" version="1.1" viewBox="0.00 0.00 124.00 124.00">
<path fill="#74aa9c" d="
  M 59.06 0.00
  L 65.31 0.00
  C 97.66 2.24 121.67 26.77 124.00 59.05
  L 124.00 65.03
  C 121.24 97.29 97.84 122.01 65.16 124.00
  L 58.70 124.00
  C 26.30 121.88 2.51 97.25 0.00 64.94
  L 0.00 58.93
  C 2.30 26.56 26.63 2.10 59.06 0.00
  Z"
/>
<path fill="#ffffff" d="
  M 51.80 93.39
  C 37.16 94.55 26.42 84.21 29.87 69.15
  A 1.01 0.98 32.7 0 0 29.67 68.28
  C 20.31 57.05 26.04 41.84 39.65 37.85
  Q 40.10 37.72 40.28 37.28
  C 45.53 24.23 61.42 20.27 71.56 30.47
  A 0.99 0.97 63.5 0 0 72.40 30.76
  C 86.62 28.81 97.91 40.75 94.02 54.86
  Q 93.89 55.33 94.21 55.71
  C 103.58 66.76 97.81 82.25 84.31 86.09
  Q 83.83 86.22 83.65 86.68
  C 78.44 99.56 62.72 103.91 52.61 93.69
  A 1.07 1.06 65.1 0 0 51.80 93.39
  Z"
/>
<path fill="#74aa9c" d="
  M 44.56 60.23
  Q 44.25 60.04 44.25 59.68
  Q 44.23 52.01 44.30 43.99
  C 44.41 32.11 56.30 26.62 66.26 32.39
  A 0.49 0.49 0.0 0 1 66.25 33.24
  Q 58.73 37.42 51.17 41.91
  C 49.62 42.84 50.26 60.20 50.26 62.98
  Q 50.26 63.64 49.69 63.30
  L 44.56 60.23
  Z"
/>
<path fill="#74aa9c" d="
  M 75.32 35.73
  C 83.91 35.37 90.46 42.54 89.68 51.09
  A 0.38 0.38 0.0 0 1 89.11 51.38
  L 74.21 42.68
  A 1.85 1.84 -44.6 0 0 72.36 42.67
  L 55.39 52.36
  Q 54.75 52.73 54.75 51.99
  L 54.75 46.30
  Q 54.75 45.86 55.12 45.64
  C 60.41 42.47 69.53 35.97 75.32 35.73
  Z"
/>
<path fill="#74aa9c" d="
  M 35.19 66.56
  C 27.48 59.76 29.23 47.85 38.67 43.61
  Q 39.25 43.35 39.25 43.99
  L 39.25 61.20
  A 1.83 1.83 0.0 0 0 40.16 62.78
  L 57.05 72.57
  Q 57.51 72.83 57.05 73.10
  L 52.02 76.01
  Q 51.61 76.24 51.20 76.02
  Q 38.08 69.11 35.19 66.56
  Z"
/>
<path fill="#74aa9c" d="
  M 88.81 57.44
  C 97.11 63.49 93.88 76.00 85.41 80.41
  Q 84.75 80.76 84.75 80.01
  L 84.75 62.87
  A 1.88 1.87 -75.2 0 0 83.81 61.24
  L 66.90 51.47
  Q 66.34 51.14 66.91 50.82
  L 71.92 47.99
  Q 72.34 47.75 72.77 47.97
  Q 82.91 53.13 88.81 57.44
  Z"
/>
<path fill="#74aa9c" d="
  M 69.25 58.40
  L 69.25 65.64
  A 0.68 0.68 0.0 0 1 68.91 66.23
  L 62.28 70.09
  A 0.68 0.68 0.0 0 1 61.59 70.08
  L 55.08 66.20
  A 0.68 0.68 0.0 0 1 54.75 65.61
  L 54.75 58.32
  A 0.68 0.68 0.0 0 1 55.09 57.73
  L 61.65 53.98
  A 0.68 0.68 0.0 0 1 62.33 53.98
  L 68.91 57.81
  A 0.68 0.68 0.0 0 1 69.25 58.40
  Z"
/>
<path fill="#74aa9c" d="
  M 79.00 63.51
  Q 79.27 63.56 79.43 63.82
  Q 79.76 64.33 79.76 64.50
  C 79.69 70.94 80.65 81.85 77.93 87.06
  C 74.17 94.27 64.31 96.28 57.74 91.38
  Q 57.32 91.07 57.77 90.80
  L 72.85 82.06
  A 1.28 1.28 0.0 0 0 73.49 80.95
  L 73.72 60.95
  Q 73.72 60.40 74.19 60.69
  Q 76.41 62.11 78.71 63.40
  Q 78.85 63.48 79.00 63.51
  Z"
/>
<path fill="#74aa9c" d="
  M 34.94 72.58
  C 39.37 75.60 44.22 78.19 48.88 80.92
  C 50.55 81.90 51.41 81.54 52.93 80.66
  Q 60.84 76.07 68.76 71.48
  Q 69.25 71.20 69.25 71.76
  L 69.25 77.70
  Q 69.25 78.14 68.87 78.36
  Q 62.48 82.12 56.14 85.92
  C 45.75 92.14 33.56 85.16 34.25 72.92
  A 0.44 0.44 0.0 0 1 34.94 72.58
  Z"
/>
</svg>
